<?xml version="1.0" standalone="no"?><svg xmlns="http://www.w3.org/2000/svg" style="isolation:isolate" width="40" height="40"><defs><clipPath id="a"><path d="M0 0h40v40H0z"/></clipPath></defs><g clip-path="url(#a)"><defs><filter id="b" x="-200%" y="-200%" width="400%" height="400%" filterUnits="objectBoundingBox" color-interpolation-filters="sRGB"><feGaussianBlur xmlns="http://www.w3.org/2000/svg" in="SourceGraphic" stdDeviation="2.147"/><feOffset xmlns="http://www.w3.org/2000/svg" result="pf_100_offsetBlur"/><feFlood xmlns="http://www.w3.org/2000/svg" flood-color="#000" flood-opacity=".65"/><feComposite xmlns="http://www.w3.org/2000/svg" in2="pf_100_offsetBlur" operator="in" result="pf_100_dropShadow"/><feBlend xmlns="http://www.w3.org/2000/svg" in="SourceGraphic" in2="pf_100_dropShadow"/></filter></defs><g filter="url(#b)"><path d="M21.496 23.965h-3.562q0-1.948.473-3.102.473-1.155 1.732-2.275 1.259-1.12 1.677-1.823.417-.703.417-1.482 0-2.351-2.17-2.351-1.03 0-1.649.633t-.647 1.746h-4.035q.028-2.657 1.718-4.16 1.691-1.503 4.613-1.503 2.949 0 4.577 1.426 1.628 1.427 1.628 4.028 0 1.183-.529 2.234-.528 1.05-1.85 2.33l-1.127 1.071q-1.058 1.016-1.211 2.38l-.055.848zm-3.966 4.272q0-.932.633-1.538.633-.605 1.621-.605t1.621.605q.633.606.633 1.538 0 .918-.619 1.516-.619.599-1.635.599-1.015 0-1.635-.599-.619-.598-.619-1.516z" fill="#FFF"/></g></g></svg>